<svg width="501" height="150" viewBox="0 0 501 150" fill="none" xmlns="http://www.w3.org/2000/svg">
<path d="M105.685 102.405C120.881 102.405 135.921 102.417 150.962 102.38C152.154 102.377 152.962 102.721 153.766 103.616C159.684 110.207 165.658 116.748 171.612 123.306C171.747 123.456 171.853 123.633 172.104 123.977C130.926 123.977 89.9137 123.977 48.6484 123.977C49.9695 122.483 51.1975 121.065 52.4571 119.675C57.4317 114.187 62.3954 108.689 67.4313 103.257C67.9053 102.746 68.8567 102.443 69.5881 102.44C81.5683 102.39 93.5488 102.405 105.685 102.405ZM122.546 114.829C122.819 114.739 123.263 114.721 123.337 114.546C123.811 113.434 122.558 111.7 121.319 111.7C114.475 111.697 107.631 111.698 100.788 111.698C97.9059 111.698 97.9056 111.698 97.3735 114.52C97.3646 114.567 97.3915 114.621 97.4335 114.83C105.685 114.83 113.97 114.83 122.546 114.829ZM81.5628 111.698C77.6312 111.698 74.0155 111.698 69.7728 111.629C67.168 111.698 65.6638 112.592 64.4525 114.83C65.0362 114.83 65.5335 114.83 66.0307 114.83C72.9627 114.83 79.8946 114.83 86.8266 114.83C89.6845 114.83 89.6858 114.831 90.3196 112.077C90.3388 111.993 90.2705 111.89 90.2146 111.698C87.4524 111.698 84.6632 111.698 81.5628 111.698ZM130.66 112.909C130.805 114.535 131.703 114.892 133.272 114.872C140.424 114.777 147.578 114.83 154.732 114.83C155.224 114.83 155.716 114.83 156.389 114.83C155.125 112.728 153.852 111.698 151.268 111.641C148.405 111.698 146.402 111.698 143.965 111.698C139.922 111.698 135.879 111.693 131.835 111.704C131.213 111.706 130.345 111.464 130.66 112.909Z" fill="#FFE23B"/>
<path d="M113.877 25.6766C118.682 26.0502 122.786 27.9155 126.352 30.7875C131.462 34.9024 134.701 40.229 135.587 46.8219C136.681 54.9482 134.31 61.9533 128.609 67.83C126.195 70.3182 123.351 72.1599 120.138 73.4768C119.623 73.6879 119.152 74.3528 118.944 74.9131C116.543 81.361 114.201 87.8307 111.829 94.2893C111.622 94.8548 111.312 95.3829 110.871 96.3018C109.875 93.6231 109.005 91.2943 108.143 88.9625C106.406 84.2617 104.694 79.5511 102.91 74.8681C102.698 74.3112 102.194 73.6568 101.669 73.4585C91.3266 69.5466 85.1808 58.7521 86.0931 48.0827C87.0178 37.2684 95.5223 27.6928 106.203 25.8653C108.659 25.4452 111.228 25.6888 113.877 25.6766ZM100.724 51.1914C100.724 54.4839 100.724 57.7764 100.724 61.0648C103.539 61.0648 106.102 61.0648 108.83 61.0648C108.83 58.8011 108.83 56.6517 108.83 54.4978C110.061 54.4978 111.121 54.4978 112.352 54.4978C112.352 56.7497 112.352 58.9003 112.352 61.0741C115.089 61.0741 117.651 61.0741 120.374 61.0741C120.374 57.3655 120.374 53.7606 120.374 50.1079C121.383 50.1079 122.164 50.1079 123.041 50.1079C123.271 50.1079 123.511 50.1079 123.511 50.1079C122.889 49.4854 120.854 47.3296 119.735 46.143C119.233 45.6105 118.889 44.7571 118.826 44.0191C118.69 42.4393 118.784 40.8398 118.784 39.2009C117.437 39.2009 116.279 39.2009 115.109 39.2009C115.041 39.9289 115.104 40.8687 115.109 41.8025C113.863 40.4031 112.586 38.9416 111.607 37.7478C110.805 36.7692 110.213 36.8708 109.37 37.7596C105.737 41.5901 101.951 45.2769 98.3742 49.1609C97.9847 49.5838 97.8291 49.7394 97.6735 50.0507C98.4345 50.0507 99.2928 50.0507 100.163 50.0507C100.811 50.0507 100.724 50.0507 100.724 51.1914Z" fill="#FFE23A"/>
<path d="M216.054 73.6957C218.112 74.0795 219.804 75.1085 221.13 76.7829C222.455 78.4574 223.118 80.376 223.118 82.5388C223.118 84.4923 222.63 86.219 221.653 87.719C220.711 89.1841 219.333 90.3353 217.519 91.1725C215.705 92.0097 213.56 92.4283 211.083 92.4283H195.333V55.905H210.403C212.88 55.905 215.008 56.3062 216.787 57.1085C218.601 57.9108 219.961 59.0271 220.868 60.4573C221.81 61.8876 222.281 63.5097 222.281 65.3236C222.281 67.4515 221.705 69.2306 220.554 70.6608C219.438 72.0911 217.938 73.1027 216.054 73.6957ZM202.659 70.9748H209.356C211.101 70.9748 212.444 70.5911 213.385 69.8236C214.327 69.0213 214.798 67.8876 214.798 66.4225C214.798 64.9573 214.327 63.8236 213.385 63.0213C212.444 62.219 211.101 61.8178 209.356 61.8178H202.659V70.9748ZM210.037 86.4632C211.816 86.4632 213.194 86.0446 214.17 85.2074C215.182 84.3702 215.688 83.1841 215.688 81.6492C215.688 80.0795 215.165 78.8585 214.118 77.9864C213.072 77.0795 211.659 76.626 209.88 76.626H202.659V86.4632H210.037ZM256.323 63.4399V92.4283H248.945V88.7655C248.003 90.0213 246.765 91.0155 245.23 91.7481C243.73 92.4458 242.09 92.7946 240.311 92.7946C238.044 92.7946 236.038 92.3237 234.294 91.3818C232.549 90.4051 231.172 88.9923 230.16 87.1434C229.183 85.2597 228.695 83.0271 228.695 80.4457V63.4399H236.02V79.3992C236.02 81.7016 236.596 83.4806 237.747 84.7364C238.898 85.9574 240.468 86.5678 242.456 86.5678C244.48 86.5678 246.067 85.9574 247.218 84.7364C248.369 83.4806 248.945 81.7016 248.945 79.3992V63.4399H256.323ZM274.644 92.8992C272.272 92.8992 270.144 92.4806 268.26 91.6434C266.376 90.7713 264.876 89.6027 263.76 88.1376C262.679 86.6725 262.086 85.0504 261.981 83.2713H269.359C269.498 84.3876 270.039 85.312 270.981 86.0446C271.958 86.7771 273.161 87.1434 274.591 87.1434C275.987 87.1434 277.068 86.8644 277.836 86.3062C278.638 85.7481 279.039 85.033 279.039 84.1609C279.039 83.219 278.551 82.5213 277.574 82.0678C276.632 81.5795 275.115 81.0562 273.022 80.4981C270.859 79.9748 269.08 79.4341 267.684 78.876C266.324 78.3178 265.138 77.4632 264.126 76.312C263.149 75.1608 262.661 73.6085 262.661 71.655C262.661 70.0504 263.115 68.5853 264.022 67.2597C264.963 65.9341 266.289 64.8876 267.998 64.1201C269.743 63.3527 271.783 62.969 274.12 62.969C277.574 62.969 280.33 63.8411 282.388 65.5853C284.446 67.2946 285.58 69.6143 285.789 72.5446H278.777C278.673 71.3934 278.184 70.4864 277.312 69.8236C276.475 69.126 275.341 68.7771 273.911 68.7771C272.586 68.7771 271.556 69.0213 270.824 69.5097C270.126 69.998 269.777 70.6783 269.777 71.5504C269.777 72.5271 270.266 73.2771 271.243 73.8004C272.219 74.2888 273.737 74.7946 275.795 75.3178C277.888 75.8411 279.615 76.3818 280.975 76.9399C282.336 77.4981 283.504 78.3702 284.481 79.5562C285.493 80.7074 286.016 82.2423 286.051 84.1609C286.051 85.8353 285.58 87.3353 284.638 88.6609C283.731 89.9865 282.405 91.033 280.661 91.8004C278.952 92.533 276.946 92.8992 274.644 92.8992ZM290.18 77.9341C290.18 74.9341 290.791 72.3178 292.012 70.0853C293.233 67.8178 294.925 66.0736 297.087 64.8527C299.25 63.5969 301.727 62.969 304.518 62.969C308.111 62.969 311.076 63.8759 313.413 65.6899C315.785 67.469 317.372 69.9806 318.175 73.2248H310.273C309.855 71.969 309.14 70.9922 308.128 70.2946C307.151 69.562 305.93 69.1957 304.465 69.1957C302.372 69.1957 300.715 69.9632 299.494 71.4981C298.273 72.9981 297.663 75.1434 297.663 77.9341C297.663 80.6899 298.273 82.8353 299.494 84.3702C300.715 85.8702 302.372 86.6202 304.465 86.6202C307.43 86.6202 309.366 85.2946 310.273 82.6434H318.175C317.372 85.783 315.785 88.2771 313.413 90.126C311.041 91.9748 308.076 92.8992 304.518 92.8992C301.727 92.8992 299.25 92.2888 297.087 91.0678C294.925 89.812 293.233 88.0678 292.012 85.8353C290.791 83.5678 290.18 80.9341 290.18 77.9341ZM321.657 77.8295C321.657 74.8992 322.233 72.3004 323.384 70.0329C324.57 67.7655 326.157 66.0213 328.146 64.8004C330.169 63.5794 332.419 62.969 334.896 62.969C337.059 62.969 338.942 63.405 340.547 64.2771C342.187 65.1492 343.495 66.248 344.471 67.5736V63.4399H351.849V92.4283H344.471V88.1899C343.53 89.5504 342.221 90.6841 340.547 91.5911C338.908 92.4632 337.006 92.8992 334.844 92.8992C332.402 92.8992 330.169 92.2713 328.146 91.0155C326.157 89.7597 324.57 87.9981 323.384 85.7306C322.233 83.4283 321.657 80.7946 321.657 77.8295ZM344.471 77.9341C344.471 76.155 344.123 74.6376 343.425 73.3818C342.727 72.0911 341.785 71.1143 340.599 70.4515C339.413 69.7539 338.14 69.405 336.78 69.405C335.419 69.405 334.163 69.7364 333.012 70.3992C331.861 71.062 330.919 72.0387 330.187 73.3294C329.489 74.5853 329.14 76.0853 329.14 77.8295C329.14 79.5736 329.489 81.1085 330.187 82.4341C330.919 83.7248 331.861 84.719 333.012 85.4167C334.198 86.1144 335.454 86.4632 336.78 86.4632C338.14 86.4632 339.413 86.1318 340.599 85.469C341.785 84.7713 342.727 83.7946 343.425 82.5388C344.123 81.2481 344.471 79.7132 344.471 77.9341ZM357.12 77.9341C357.12 74.9341 357.731 72.3178 358.952 70.0853C360.173 67.8178 361.865 66.0736 364.027 64.8527C366.19 63.5969 368.667 62.969 371.458 62.969C375.051 62.969 378.016 63.8759 380.353 65.6899C382.725 67.469 384.312 69.9806 385.115 73.2248H377.213C376.795 71.969 376.08 70.9922 375.068 70.2946C374.091 69.562 372.87 69.1957 371.405 69.1957C369.312 69.1957 367.655 69.9632 366.434 71.4981C365.213 72.9981 364.603 75.1434 364.603 77.9341C364.603 80.6899 365.213 82.8353 366.434 84.3702C367.655 85.8702 369.312 86.6202 371.405 86.6202C374.37 86.6202 376.306 85.2946 377.213 82.6434H385.115C384.312 85.783 382.725 88.2771 380.353 90.126C377.981 91.9748 375.016 92.8992 371.458 92.8992C368.667 92.8992 366.19 92.2888 364.027 91.0678C361.865 89.812 360.173 88.0678 358.952 85.8353C357.731 83.5678 357.12 80.9341 357.12 77.9341ZM417.429 77.3062C417.429 78.3527 417.359 79.2946 417.22 80.1318H396.028C396.202 82.2248 396.935 83.8643 398.225 85.0504C399.516 86.2364 401.103 86.8295 402.987 86.8295C405.708 86.8295 407.644 85.6609 408.795 83.3236H416.696C415.859 86.1144 414.255 88.4167 411.882 90.2306C409.51 92.0097 406.598 92.8992 403.144 92.8992C400.353 92.8992 397.842 92.2888 395.609 91.0678C393.411 89.812 391.685 88.0504 390.429 85.783C389.208 83.5155 388.598 80.8992 388.598 77.9341C388.598 74.9341 389.208 72.3004 390.429 70.0329C391.65 67.7655 393.359 66.0213 395.557 64.8004C397.755 63.5794 400.284 62.969 403.144 62.969C405.9 62.969 408.359 63.562 410.522 64.748C412.72 65.9341 414.412 67.626 415.598 69.8236C416.819 71.9864 417.429 74.4806 417.429 77.3062ZM409.842 75.2132C409.807 73.3294 409.127 71.8294 407.801 70.7132C406.475 69.562 404.853 68.9864 402.935 68.9864C401.121 68.9864 399.586 69.5446 398.33 70.6608C397.109 71.7422 396.359 73.2597 396.08 75.2132H409.842ZM430.102 67.626C431.043 66.3004 432.334 65.2015 433.974 64.3294C435.648 63.4225 437.549 62.969 439.677 62.969C442.154 62.969 444.386 63.5794 446.375 64.8004C448.398 66.0213 449.985 67.7655 451.137 70.0329C452.323 72.2655 452.916 74.8643 452.916 77.8295C452.916 80.7946 452.323 83.4283 451.137 85.7306C449.985 87.9981 448.398 89.7597 446.375 91.0155C444.386 92.2713 442.154 92.8992 439.677 92.8992C437.549 92.8992 435.666 92.4632 434.026 91.5911C432.421 90.719 431.113 89.6202 430.102 88.2946V106.242H422.776V63.4399H430.102V67.626ZM445.433 77.8295C445.433 76.0853 445.067 74.5853 444.334 73.3294C443.636 72.0387 442.695 71.062 441.509 70.3992C440.357 69.7364 439.102 69.405 437.741 69.405C436.416 69.405 435.16 69.7539 433.974 70.4515C432.823 71.1143 431.881 72.0911 431.148 73.3818C430.45 74.6725 430.102 76.1899 430.102 77.9341C430.102 79.6783 430.45 81.1957 431.148 82.4864C431.881 83.7771 432.823 84.7713 433.974 85.469C435.16 86.1318 436.416 86.4632 437.741 86.4632C439.102 86.4632 440.357 86.1144 441.509 85.4167C442.695 84.719 443.636 83.7248 444.334 82.4341C445.067 81.1434 445.433 79.6085 445.433 77.8295Z" fill="white"/>
</svg>
